<?xml version="1.0" encoding="UTF-8" standalone="no"?>
<!-- Created with Inkscape (http://www.inkscape.org/) -->

<svg
   xmlns:dc="http://purl.org/dc/elements/1.1/"
   xmlns:cc="http://creativecommons.org/ns#"
   xmlns:rdf="http://www.w3.org/1999/02/22-rdf-syntax-ns#"
   xmlns:svg="http://www.w3.org/2000/svg"
   xmlns="http://www.w3.org/2000/svg"
   xmlns:sodipodi="http://sodipodi.sourceforge.net/DTD/sodipodi-0.dtd"
   xmlns:inkscape="http://www.inkscape.org/namespaces/inkscape"
   width="691.17694"
   height="690.46973"
   id="svg2"
   version="1.1"
   inkscape:version="0.92.4 (5da689c313, 2019-01-14)"
   sodipodi:docname="logo.svg">
  <defs
     id="defs4" />
  <sodipodi:namedview
     id="base"
     pagecolor="#ffffff"
     bordercolor="#666666"
     borderopacity="1.0"
     inkscape:pageopacity="0.0"
     inkscape:pageshadow="2"
     inkscape:zoom="0.49497475"
     inkscape:cx="437.31156"
     inkscape:cy="341.76414"
     inkscape:document-units="in"
     inkscape:current-layer="layer1"
     showgrid="false"
     inkscape:window-width="1280"
     inkscape:window-height="743"
     inkscape:window-x="0"
     inkscape:window-y="20"
     inkscape:window-maximized="1"
     units="in"
     fit-margin-top="30"
     fit-margin-left="30"
     fit-margin-right="30"
     fit-margin-bottom="30" />
  <metadata
     id="metadata7">
    <rdf:RDF>
      <cc:Work
         rdf:about="">
        <dc:format>image/svg+xml</dc:format>
        <dc:type
           rdf:resource="http://purl.org/dc/dcmitype/StillImage" />
        <dc:title></dc:title>
      </cc:Work>
    </rdf:RDF>
  </metadata>
  <g
     inkscape:label="Layer 1"
     inkscape:groupmode="layer"
     id="layer1"
     transform="translate(659.05479,-417.43643)">
    <g
       id="g3045">
      <path
         id="path3043"
         d="m -324.63714,1077.7394 c -99.78551,-3.1969 -194.88993,-56.037 -250.42669,-139.1372 -3.431,-5.13383 -6.08858,-9.46014 -5.90574,-9.61402 1.95117,-1.64211 17.04258,-9.63903 17.714,-9.38662 0.48993,0.18418 3.49281,4.15987 6.67307,8.83487 37.86702,55.66469 96.15828,97.70847 161.57079,116.53617 42.08247,12.1126 88.30342,14.7115 130.79695,7.3546 49.41387,-8.5551 95.59473,-29.3147 135.03009,-60.69987 19.98922,-15.90867 44.22325,-42.16156 58.93956,-63.84963 l 6.2146,-9.15873 8.94668,5.11903 c 4.92068,2.81547 8.94669,5.49472 8.94669,5.95389 0,1.39521 -9.83004,15.59463 -18.86099,27.24454 -10.63429,13.71821 -38.26381,41.57095 -51.97704,52.39697 -59.34857,46.8531 -132.12383,70.826 -207.66197,68.406 z"
         style="fill:#c42028;fill-opacity:1"
         inkscape:connector-curvature="0" />
      <path
         id="path3041"
         d="m -326.63714,1037.6925 c -18.51258,-0.9085 -44.26936,-5.4058 -62.42075,-10.8991 -95.59379,-28.93023 -167.08631,-104.62888 -189.53568,-200.68665 -13.35874,-57.16023 -7.85625,-117.41383 15.72297,-172.17032 2.97107,-6.89952 8.48333,-18.43309 9.21219,-19.27509 0.13097,-0.15131 5.58933,2.79501 12.1297,6.54737 l 11.89157,6.82247 0.25399,121.06387 0.25398,121.06387 32.3178,18.63875 c 17.77479,10.25132 32.62299,18.63876 32.99601,18.63876 0.37302,0 0.67443,-11.1375 0.6698,-24.75 l -0.008,-24.75 -5.87035,-8.19452 c -11.15109,-15.56543 -19.71326,-35.04646 -23.64861,-53.80548 -2.33092,-11.111 -2.35018,-30.83935 -0.039,-40 12.29276,-48.72485 63.63982,-54.32569 106.40136,-11.60606 14.92113,14.90651 27.5401,35.20506 34.01901,54.72211 8.59137,25.88067 8.38577,52.73084 -0.54401,71.04385 -3.59616,7.37493 -12.25437,16.73179 -19.01094,20.54496 l -5.291,2.98606 0.009,32.15454 0.009,32.15454 28.49139,16.47223 28.49138,16.47224 v 13.2188 c 0,7.2703 -0.3375,13.3581 -0.75,13.5284 -0.4125,0.1704 -3,0.1993 -5.75,0.064 z"
         style="fill:#209466;fill-opacity:1"
         inkscape:connector-curvature="0" />
      <path
         id="path3039"
         d="m -301.9149,1024.4285 0.27776,-14.109 104.25,-60.18617 104.25,-60.18612 V 848.0968 806.24639 l -4.25,2.45019 c -2.3375,1.34761 -10.55,6.08668 -18.25,10.53127 l -14,8.08108 -2.39931,6.81375 c -11.5068,32.67796 -35.75751,61.18243 -63.17231,74.2532 -12.24015,5.83583 -19.20818,7.34347 -31.8602,6.89345 -9.36545,-0.33312 -11.34065,-0.73934 -17.35578,-3.56946 -13.31465,-6.26452 -22.90212,-18.61269 -27.37955,-35.26344 -2.63434,-9.79661 -2.42162,-32.69315 0.40937,-44.06459 5.84139,-23.46352 15.98238,-43.46766 31.37066,-61.88183 11.68581,-13.98366 32.26603,-28.0982 47.88712,-32.84245 18.93704,-5.75132 36.33213,-2.59304 49.48501,8.98459 l 4.27665,3.76446 22.58553,-12.73009 22.58552,-12.73009 0.28365,-38.45515 0.28364,-38.45515 7,-4.08979 c 3.85,-2.24938 9.12665,-5.31968 11.72589,-6.82287 l 4.72589,-2.73309 4.52433,9.00849 c 13.84137,27.55981 22.71981,58.3371 26.5533,92.04756 1.56317,13.74605 1.30321,45.32879 -0.49685,60.36135 -10.03392,83.79473 -56.08923,155.93965 -128.62555,201.48988 -35.07609,22.02654 -80.21356,37.01154 -119.40701,39.64144 -4.95,0.3321 -10.47499,0.8299 -12.27776,1.1062 l -3.27777,0.5022 z"
         style="fill:#163b64;fill-opacity:1"
         inkscape:connector-curvature="0" />
      <path
         id="path3037"
         d="m -597.19296,900.3252 c -16.74055,-33.35945 -26.90024,-69.49904 -31.00596,-110.29305 -1.74685,-17.35645 -0.69571,-55.23505 2.02842,-73.09572 5.50185,-36.0727 14.62122,-64.62876 30.97693,-97 22.7546,-45.03593 57.11225,-85.05305 98.0416,-114.19122 29.49519,-20.99802 64.13767,-37.6101 98.62706,-47.29455 20.32901,-5.70828 52.98809,-10.98316 68.13777,-11.00516 l 6.25,-0.009 v 9.91468 9.91468 l -7.75,0.62998 c -42.69931,3.47091 -75.65361,12.32356 -111.75,30.01985 -116.42361,57.07678 -181.73659,184.32627 -160.40666,312.52081 4.39481,26.41316 12.74317,53.13956 24.02094,76.90053 3.23715,6.82029 5.88572,12.54038 5.88572,12.71131 0,0.38123 -16.87854,10.38816 -17.52156,10.38816 -0.25311,0 -2.74353,-4.55005 -5.53426,-10.11123 z"
         style="fill:#163b64;fill-opacity:1"
         inkscape:connector-curvature="0" />
      <path
         id="path3035"
         d="m -43.82115,905.64742 c -4.50121,-2.61013 -8.46679,-5.02845 -8.8124,-5.37407 -0.34562,-0.34561 1.42479,-4.71652 3.93423,-9.71312 12.85304,-25.59192 22.42742,-57.10693 27.22807,-89.6238 1.35547,-9.18114 1.77163,-18.34244 1.77163,-39 0,-29.36748 -1.00342,-39.41296 -6.39281,-64 -9.33523,-42.58846 -29.7892,-85.19333 -57.78838,-120.37111 -10.18027,-12.79036 -33.26833,-35.83491 -46.04056,-45.95379 -47.15837,-37.36155 -103.26258,-59.10799 -164.46577,-63.74825 l -8.75,-0.6634 v -9.88173 -9.88172 l 6.25,0.009 c 3.4375,0.005 12.0393,0.69066 19.11511,1.52372 105.69086,12.44327 196.24062,74.82908 245.24706,168.9672 23.3448604,44.84395 34.7068304,92.06673 34.6468904,144 -0.0496,43.01276 -6.61679,77.74542 -22.2165204,117.5 -3.07333,7.83213 -14.26266,31.00419 -14.95883,30.97833 -0.32104,-0.0119 -4.26651,-2.15721 -8.76772,-4.76734 z"
         style="fill:#209466;fill-opacity:1"
         inkscape:connector-curvature="0" />
      <path
         id="path3031"
         d="m -331.63714,697.39677 c -22.10263,-2.12785 -45.98684,-11.08645 -60.63796,-22.74438 -18.5612,-14.76919 -25.83711,-32.99017 -21.27609,-53.28145 0.54635,-2.43065 -0.49193,-3.18653 -19.75464,-14.38161 -11.18222,-6.49886 -20.78131,-11.83087 -21.33131,-11.8489 -0.55,-0.018 -15.175,8.19673 -32.5,18.25502 -17.325,10.0583 -31.99402,18.30728 -32.59783,18.33106 -0.60381,0.0238 -6.33564,-2.99831 -12.73742,-6.71577 l -11.63958,-6.75902 6.915,-10.15765 c 22.85194,-33.56787 55.89757,-63.79116 92.05983,-84.19725 64.15619,-36.20284 142.27443,-44.59515 214,-22.99019 58.88529,17.73724 112.61873,57.7198 148.10962,110.20702 l 4.8531,7.17722 -11.73136,6.73796 c -6.45225,3.70588 -12.18136,6.73546 -12.73136,6.73238 -0.55,-0.003 -47.45052,-26.8524 -104.22338,-59.66518 -56.77285,-32.81278 -103.75809,-59.6596 -104.41165,-59.6596 -1.29333,0 -68.50986,38.53643 -70.71311,40.54108 -1.09361,0.99504 1.63573,2.91618 14.45652,10.17572 l 15.80466,8.94909 6.04348,-1.39926 c 10.00111,-2.31558 38.32145,-2.79894 50.54638,-0.8627 32.63597,5.16903 59.97495,21.87547 70.29812,42.95813 10.87476,22.20915 2.67938,47.48208 -20.80102,64.1462 -22.01911,15.62704 -54.89851,23.44625 -86,20.45208 z"
         style="fill:#c42028;fill-opacity:1"
         inkscape:connector-curvature="0" />
    </g>
  </g>
</svg>
